<?xml version="1.0" standalone="no"?>
<!DOCTYPE svg PUBLIC "-//W3C//DTD SVG 20010904//EN"
 "http://www.w3.org/TR/2001/REC-SVG-20010904/DTD/svg10.dtd">
<svg version="1.0" xmlns="http://www.w3.org/2000/svg"
 width="256.000000pt" height="256.000000pt" viewBox="0 0 256.000000 256.000000"
 preserveAspectRatio="xMidYMid meet">

<g transform="translate(0.000000,256.000000) scale(0.100000,-0.100000)"
fill="#000000" stroke="none">
<path d="M0 1280 l0 -1280 1280 0 1280 0 0 1280 0 1280 -1280 0 -1280 0 0
-1280z m1530 1246 c406 -88 737 -360 896 -737 58 -137 85 -267 91 -430 9 -226
-23 -389 -112 -577 -76 -161 -170 -286 -307 -408 -327 -292 -800 -385 -1225
-240 -421 143 -741 522 -819 966 -24 142 -15 370 21 509 129 497 521 851 1030
930 87 14 336 6 425 -13z"/>
<path d="M1141 2429 c-481 -60 -876 -423 -977 -899 -23 -106 -25 -334 -5 -435
82 -412 376 -746 767 -874 120 -39 218 -54 349 -54 312 0 590 116 810 338 137
138 242 322 292 512 31 120 42 328 23 455 -58 400 -343 749 -730 895 -149 56
-370 82 -529 62z m320 -74 c402 -70 729 -364 843 -759 124 -428 -32 -885 -395
-1156 -207 -154 -485 -230 -738 -202 -143 16 -235 43 -366 107 -301 148 -507
416 -576 746 -29 143 -23 350 15 487 85 308 303 565 589 697 186 86 424 116
628 80z"/>
<path d="M600 1940 c-18 -18 -20 -33 -20 -174 0 -213 -13 -201 213 -201 232 0
217 -14 217 201 0 208 16 194 -217 194 -160 0 -175 -2 -193 -20z"/>
<path d="M624 1462 c-27 -18 -34 -56 -34 -187 0 -131 7 -169 34 -187 6 -4 181
-8 388 -8 l377 0 15 22 c13 18 16 53 16 173 0 120 -3 155 -16 173 l-15 22
-377 0 c-207 0 -382 -4 -388 -8z"/>
<path d="M615 975 c-24 -23 -25 -29 -25 -158 0 -121 2 -137 21 -161 l20 -26
645 0 c631 0 644 0 664 20 18 18 20 33 20 164 0 144 0 145 -26 165 -26 21 -34
21 -661 21 l-634 0 -24 -25z"/>
</g>
</svg>
